:version 1.10
:name ASF
:units
  mass 1
  length 1
  angle deg
:documentation
  ASF file generated by Kaydara
:root
  axis xyz
  order  tx ty tz rx ry rz
  position 0 0 0
  orientation 0 0 0
:bonedata
  begin
    id 1
    name RightUpLegDummy
    direction -1 2.30186e-007 8.31532e-007
    length 4.46685
    axis 0 0 0 xyz
  end
  begin
    id 2
    name RightUpLeg
    direction -2.30187e-007 -1 1.24343e-010
    length 16.4045
    axis -3.49089 -0.000906625 0.000286804 xyz
    dof rx ry rz
  end
  begin
    id 3
    name RightLeg
    direction -2.30181e-007 -1 -4.17157e-009
    length 17.5097
    axis 3.68512 0.0193738 -0.131023 xyz
    dof rx ry rz
  end
  begin
    id 4
    name RightFoot
    direction 8.31421e-007 -4.51202e-011 1
    length 6.49508
    axis 4.81691e-005 -0.120479 -0.188788 xyz
    dof rx ry rz
  end
  begin
    id 5
    name RightToes
    direction 0.00124746 -0.014064 0.9999
    length 3.85082
    axis 0.000481921 0.542163 -0.142578 xyz
    dof rx ry rz
  end
  begin
    id 6
    name SpineDummy
    direction 0.0717043 0.9409 -0.331007
    length 10.0032
    axis 0 0 0 xyz
  end
  begin
    id 7
    name Spine
    direction 2.30186e-007 1 4.58806e-011
    length 9.84055
    axis -0.001389 0.000121418 2.40972e-006 xyz
    dof rx ry rz
  end
  begin
    id 8
    name Spine1
    direction 0 0 0
    length 0
    axis -0.001389 0.000121451 1.30017e-006 xyz
    dof rx ry rz
  end
  begin
    id 9
    name HEadDummy
    direction -0.00347485 0.950688 -0.310128
    length 8.00997
    axis -0.001389 0.000121451 1.30017e-006 xyz
  end
  begin
    id 10
    name HEad
    direction -0.0222688 0.980941 0.193023
    length 5.12695
    axis -0.001389 0.000121451 1.30017e-006 xyz
    dof rx ry rz
  end
  begin
    id 11
    name LeftShoulder1Dummy
    direction 0.988871 0.146793 -0.0242004
    length 3.5792
    axis -0.001389 0.000121451 1.30017e-006 xyz
  end
  begin
    id 12
    name LeftShoulder1
    direction 0.993832 0.108932 0.020779
    length 4.16823
    axis -0.001389 0.000121451 1.30017e-006 xyz
    dof rx ry rz
  end
  begin
    id 13
    name LeftArm
    direction 1 3.44807e-006 -8.31404e-007
    length 9.91437
    axis -23.1894 0.134784 0.967509 xyz
    dof rx ry rz
  end
  begin
    id 14
    name LeftForeArm
    direction 1 3.44842e-006 -8.31581e-007
    length 9.08575
    axis -9.91835 -0.06569 -0.177793 xyz
    dof rx ry rz
  end
  begin
    id 15
    name LeftHand
    direction 0.992938 -0.0411636 0.11126
    length 5.32135
    axis -0.00960232 -0.00340091 0.185173 xyz
    dof rx ry rz
  end
  begin
    id 16
    name RightShoulderDummy
    direction -0.988871 0.146793 -0.0241962
    length 3.5792
    axis -0.001389 0.000121451 1.30017e-006 xyz
  end
  begin
    id 17
    name RightShoulder
    direction -0.993832 0.108933 0.0207785
    length 4.16823
    axis 0.215806 0.000203643 -0.0068026 xyz
    dof rx ry rz
  end
  begin
    id 18
    name RightArm
    direction -1 3.90912e-006 8.31284e-007
    length 9.91437
    axis -23.2009 -0.134239 -0.964101 xyz
    dof rx ry rz
  end
  begin
    id 19
    name RightForeArm
    direction -1 3.90882e-006 8.31502e-007
    length 9.08575
    axis -9.92322 0.0658061 0.178867 xyz
    dof rx ry rz
  end
  begin
    id 20
    name RightHand
    direction -0.992843 -0.0414603 0.112003
    length 5.28593
    axis -0.00960638 0.00330671 -0.185228 xyz
    dof rx ry rz
  end
  begin
    id 21
    name LeftUpLegDummy
    direction 1 -2.30186e-007 -8.31532e-007
    length 4.46685
    axis 0 0 0 xyz
  end
  begin
    id 22
    name LeftUpLeg
    direction -2.30187e-007 -1 6.00931e-010
    length 16.4045
    axis -3.48766 0.00143442 -0.000524262 xyz
    dof rx ry rz
  end
  begin
    id 23
    name LeftLeg
    direction -2.30187e-007 -1 1.6669e-009
    length 17.5097
    axis 3.68178 -0.00654042 -0.000285133 xyz
    dof rx ry rz
  end
  begin
    id 24
    name LeftFoot
    direction 8.31532e-007 -4.54478e-011 1
    length 6.49508
    axis 1.87233e-006 4.66016e-005 -8.6538e-006 xyz
    dof rx ry rz
  end
  begin
    id 25
    name LeftToes
    direction 0.00818058 -0.00485161 0.999955
    length 3.85048
    axis 1.06247e-005 4.65869e-005 -8.65513e-006 xyz
    dof rx ry rz
  end
:hierarchy
  begin
    root RightUpLegDummy SpineDummy LeftUpLegDummy
    RightUpLegDummy RightUpLeg
    RightUpLeg RightLeg
    RightLeg RightFoot
    RightFoot RightToes
    SpineDummy Spine
    Spine Spine1
    Spine1 HEadDummy LeftShoulder1Dummy RightShoulderDummy
    HEadDummy HEad
    LeftShoulder1Dummy LeftShoulder1
    LeftShoulder1 LeftArm
    LeftArm LeftForeArm
    LeftForeArm LeftHand
    RightShoulderDummy RightShoulder
    RightShoulder RightArm
    RightArm RightForeArm
    RightForeArm RightHand
    LeftUpLegDummy LeftUpLeg
    LeftUpLeg LeftLeg
    LeftLeg LeftFoot
    LeftFoot LeftToes
  end

:SAMPLES-PER-SECOND 30
:FULLY-SPECIFIED
:DEGREES
1
root  40.3729 33.3859 -63.3974 -1.60578 -34.379 1.82707
RightUpLeg  -1.12656 -11.2065 -4.87269
RightLeg  16.9687 -7.74044 -1.81997
RightFoot  -3.03879 0.00258669 0.436548
RightToes  -28.1011 -0.127167 -0.231604
Spine  4.40248 -0.86643 -0.677314
Spine1  8.33533 -1.56087 -1.69748
HEad  21.0825 13.0238 7.55406
LeftShoulder1  0 -2.42657e-020 -4.95415e-022
LeftArm  -37.3627 13.6627 -84.9157
LeftForeArm  55.0224 -17.8461 -3.21426
LeftHand  0.301003 -9.42605 -4.02268
RightShoulder  0 2.42657e-020 1.07489e-018
RightArm  -41.1273 -14.8079 83.966
RightForeArm  52.9247 17.6351 3.17856
RightHand  -1.1033 22.1092 -5.27435
LeftUpLeg  -3.37876 -3.79756 -1.5952
LeftLeg  16.6887 -6.0251 -1.39088
LeftFoot  -2.904 0.0103808 0.274591
LeftToes  -9.13967 8.72033e-007 1.17809e-007
2
root  40.3354 33.39 -63.3589 -1.6883 -34.6299 1.77617
RightUpLeg  -0.935892 -10.9094 -4.81007
RightLeg  16.8832 -7.7827 -1.8176
RightFoot  -3.025 0.00157709 0.437378
RightToes  -27.9588 -0.127133 -0.231379
Spine  4.42009 -0.869164 -0.683747
Spine1  8.37516 -1.56132 -1.71531
HEad  20.9492 12.736 7.62729
LeftShoulder1  0 -2.42657e-020 -4.95415e-022
LeftArm  -37.4976 13.9102 -84.886
LeftForeArm  54.888 -18.0583 -3.25582
LeftHand  0.325313 -9.34453 -4.35203
RightShoulder  0 2.42657e-020 1.07489e-018
RightArm  -40.9867 -15.0776 84.0584
RightForeArm  52.5262 18.4379 3.33581
RightHand  -1.05492 22.0464 -5.04291
LeftUpLeg  -3.10047 -3.67579 -1.55249
LeftLeg  16.5987 -5.90089 -1.3526
LeftFoot  -2.98134 0.00842372 0.277601
LeftToes  -9.18045 8.72033e-007 1.17809e-007
3
root  40.3018 33.4155 -63.3282 -1.75992 -34.8501 1.74013
RightUpLeg  -0.623843 -10.6793 -4.75893
RightLeg  16.5013 -7.81853 -1.77111
RightFoot  -2.86812 0.00101461 0.418179
RightToes  -27.9077 -0.127062 -0.231117
Spine  4.41434 -0.89841 -0.715291
Spine1  8.39013 -1.61055 -1.78394
HEad  20.926 12.5715 7.62244
LeftShoulder1  0 -2.42657e-020 -4.95415e-022
LeftArm  -37.0103 14.8172 -84.8377
LeftForeArm  53.9762 -19.2859 -3.49864
LeftHand  0.308982 -10.1022 -3.86728
RightShoulder  0 2.42657e-020 1.07489e-018
RightArm  -37.4025 -16.1939 84.0184
RightForeArm  51.1032 20.8609 3.82051
RightHand  -1.20624 22.3476 -5.73264
LeftUpLeg  -2.71841 -3.63879 -1.5087
LeftLeg  16.2233 -5.80649 -1.29114
LeftFoot  -2.87004 0.00663948 0.265028
LeftToes  -9.18016 8.72033e-007 1.17809e-007
4
root  40.2656 33.5011 -63.3092 -1.78144 -35.0328 1.66197
RightUpLeg  0.130559 -10.5108 -4.65427
RightLeg  15.1628 -7.87496 -1.59169
RightFoot  -2.21768 -0.000949188 0.328612
RightToes  -27.7709 -0.12695 -0.230817
Spine  4.35721 -0.980471 -0.747479
Spine1  8.35523 -1.7701 -1.84071
HEad  20.4272 12.671 7.34435
LeftShoulder1  0 -2.42657e-020 -4.95415e-022
LeftArm  -34.6911 16.3522 -84.7224
LeftForeArm  52.938 -21.9672 -4.04081
LeftHand  0.101358 -10.6392 -1.45942
RightShoulder  0 2.42657e-020 1.07489e-018
RightArm  -29.5628 -18.071 83.4174
RightForeArm  45.4265 25.7823 4.86297
RightHand  -1.34944 22.0337 -6.5551
LeftUpLeg  -1.94894 -3.67842 -1.43658
LeftLeg  14.9801 -5.59931 -1.1185
LeftFoot  -2.27298 0.00405503 0.204397
LeftToes  -9.2117 8.72033e-007 1.17809e-007
5
root  40.2408 33.6225 -63.3084 -1.77933 -35.2673 1.5835
RightUpLeg  1.08127 -10.2498 -4.51989
RightLeg  13.2914 -7.98355 -1.34431
RightFoot  -1.2708 -0.0020294 0.194667
RightToes  -27.4555 -0.126797 -0.230478
Spine  4.2959 -1.09726 -0.785425
Spine1  8.34089 -2.03031 -1.85474
HEad  19.518 12.9952 6.86549
LeftShoulder1  0 -2.42657e-020 -4.95415e-022
LeftArm  -32.005 18.6808 -84.5178
LeftForeArm  49.1164 -28.636 -5.49412
LeftHand  -0.011171 -10.4026 -0.247395
RightShoulder  0 2.42657e-020 1.07489e-018
RightArm  -22.3713 -19.7784 82.5135
RightForeArm  39.7663 33.2824 6.63522
RightHand  -1.39084 22.1646 -6.72397
LeftUpLeg  -0.904907 -3.74844 -1.36911
LeftLeg  13.099 -5.35123 -0.887701
LeftFoot  -1.30978 0.00130617 0.114262
LeftToes  -9.30993 8.72033e-007 1.17809e-007
6
root  40.2122 33.6397 -63.3327 -1.72044 -35.5428 1.54313
RightUpLeg  0.950591 -10.0615 -4.3898
RightLeg  13.3367 -7.93413 -1.34248
RightFoot  -1.21201 -0.00199621 0.188929
RightToes  -27.3806 -0.126305 -0.230099
Spine  4.30775 -1.12386 -0.789052
Spine1  8.34065 -2.06588 -1.89879
HEad  18.985 13.2551 6.59611
LeftShoulder1  0 -2.42657e-020 -4.95415e-022
LeftArm  -28.9676 20.9062 -83.9765
LeftForeArm  45.4117 -37.7031 -7.81468
LeftHand  -0.110662 -10.1443 0.877375
RightShoulder  0 2.42657e-020 1.07489e-018
RightArm  -16.6224 -21.3521 81.4863
RightForeArm  39.9835 44.4812 9.97673
RightHand  -1.82303 22.685 -8.70246
LeftUpLeg  -0.886865 -3.66561 -1.27285
LeftLeg  13.0306 -5.17597 -0.85241
LeftFoot  -1.18813 0.0010718 0.103359
LeftToes  -9.4993 8.72033e-007 1.17809e-007
7
root  40.1817 33.6518 -63.3762 -1.66028 -35.7866 1.52839
RightUpLeg  0.880026 -10.0503 -4.2874
RightLeg  13.2092 -7.75787 -1.29515
RightFoot  -1.13354 -0.00187908 0.179654
RightToes  -27.33 -0.125506 -0.229678
Spine  4.27105 -1.0248 -0.785347
Spine1  8.21587 -1.82773 -1.95716
HEad  18.7603 13.1991 6.53497
LeftShoulder1  0 -2.42657e-020 -4.95415e-022
LeftArm  -25.389 22.2251 -82.9435
LeftForeArm  46.0633 -46.449 -10.684
LeftHand  -0.417041 -9.77284 4.50846
RightShoulder  0 2.42657e-020 1.07489e-018
RightArm  -12.4979 -21.9348 80.6096
RightForeArm  42.5663 54.786 14.5057
RightHand  -2.24938 22.6172 -10.8468
LeftUpLeg  -0.903766 -3.56347 -1.1803
LeftLeg  12.9468 -5.01643 -0.818728
LeftFoot  -1.06074 0.000975855 0.0927705
LeftToes  -9.54511 8.72033e-007 1.17809e-007
8
root  40.1595 33.6617 -63.439 -1.55681 -35.9447 1.49623
RightUpLeg  0.87056 -9.86341 -4.12165
RightLeg  12.8702 -7.77387 -1.25066
RightFoot  -0.932013 -0.000965047 0.159022
RightToes  -27.5928 -0.124692 -0.229215
Spine  4.22991 -0.8166 -0.774816
Spine1  8.05863 -1.36006 -2.01167
HEad  18.3518 12.8195 6.45329
LeftShoulder1  0 -2.42657e-020 -4.95415e-022
LeftArm  -22.524 22.1978 -81.7041
LeftForeArm  47.5038 -54.6237 -14.3998
LeftHand  -0.62649 -9.75513 6.96647
RightShoulder  0 2.42657e-020 1.07489e-018
RightArm  -9.47213 -21.4446 79.7802
RightForeArm  46.6825 64.2563 21.5585
RightHand  -2.542 22.4126 -12.4129
LeftUpLeg  -0.980191 -3.36371 -1.03259
LeftLeg  12.8333 -5.06378 -0.816125
LeftFoot  -0.90282 0.000770717 0.0846985
LeftToes  -9.83908 8.72033e-007 1.17809e-007
9
root  40.1427 33.6709 -63.5257 -1.49906 -35.8125 1.45337
RightUpLeg  0.865438 -9.90941 -3.95845
RightLeg  12.6768 -7.85243 -1.2361
RightFoot  -0.940432 -0.00215509 0.170618
RightToes  -27.0714 -0.123826 -0.228707
Spine  4.20702 -0.613525 -0.774024
Spine1  7.92324 -0.894705 -2.09213
HEad  17.632 12.3161 6.42625
LeftShoulder1  0 -2.42657e-020 -4.95415e-022
LeftArm  -20.2161 20.9137 -80.3814
LeftForeArm  50.1745 -62.1415 -19.5551
LeftHand  -0.723504 -9.57772 8.2559
RightShoulder  0 2.42657e-020 1.07489e-018
RightArm  -7.07154 -19.569 79.0388
RightForeArm  57.2763 72.2331 33.6546
RightHand  -2.90151 22.1243 -14.396
LeftUpLeg  -1.07032 -3.35429 -0.875631
LeftLeg  12.7065 -5.20761 -0.827378
LeftFoot  -0.714032 0.000475874 0.0763602
LeftToes  -10.0415 8.72033e-007 1.17809e-007
10
root  40.1306 33.6829 -63.6189 -1.37547 -35.3696 1.38948
RightUpLeg  0.892555 -10.1177 -3.78219
RightLeg  12.3931 -8.06303 -1.22824
RightFoot  -0.78627 -0.00217645 0.16218
RightToes  -27.114 -0.122868 -0.228155
Spine  4.17618 -0.452592 -0.765724
Spine1  7.75385 -0.494559 -2.1935
HEad  16.6819 11.6509 6.55904
LeftShoulder1  0 -2.42657e-020 -4.95415e-022
LeftArm  -17.4809 18.2387 -78.9086
LeftForeArm  54.8919 -68.6007 -26.8889
LeftHand  -0.832679 -8.59219 10.6888
RightShoulder  0 2.42657e-020 1.07489e-018
RightArm  -5.66831 -16.4217 78.2765
RightForeArm  79.234 77.8555 55.7806
RightHand  -3.25061 22.8329 -15.6312
LeftUpLeg  -1.27891 -3.19692 -0.654619
LeftLeg  12.5948 -5.77633 -0.905738
LeftFoot  -0.444536 0.000244029 0.0628955
LeftToes  -10.4845 8.72033e-007 1.17809e-007
11
root  40.1476 33.7012 -63.7339 -1.22496 -34.7708 1.36287
RightUpLeg  0.800115 -10.2447 -3.60866
RightLeg  12.1928 -8.47464 -1.26025
RightFoot  -0.702687 -0.00305342 0.163684
RightToes  -26.5865 -0.121781 -0.227556
Spine  4.08334 -0.316637 -0.75682
Spine1  7.45737 -0.172283 -2.23408
HEad  15.6452 10.5829 6.3577
LeftShoulder1  0 -2.42657e-020 -4.95415e-022
LeftArm  -14.836 13.9877 -77.5896
LeftForeArm  60.6562 -73.6461 -37.2343
LeftHand  -0.78899 -7.75159 11.2462
RightShoulder  0 2.42657e-020 1.07489e-018
RightArm  -5.04001 -11.6439 77.4547
RightForeArm  114.178 79.8888 90.926
RightHand  -3.38266 22.6628 -16.3991
LeftUpLeg  -1.51286 -3.39345 -0.538529
LeftLeg  12.2899 -6.10104 -0.923178
LeftFoot  -0.0798453 -9.39096e-005 0.0327729
LeftToes  -10.7863 8.72033e-007 1.17809e-007
